<svg width="20" height="20" viewBox="0 0 20 20" fill="none" xmlns="http://www.w3.org/2000/svg">
<path d="M15.4031 16C15.3247 16 15.247 15.9846 15.1746 15.9545C15.1021 15.9244 15.0364 15.8803 14.981 15.8248L4.17504 5.02023C4.06297 4.90815 4 4.75614 4 4.59764C4 4.43913 4.06297 4.28712 4.17504 4.17504C4.28712 4.06297 4.43913 4 4.59764 4C4.75614 4 4.90815 4.06297 5.02023 4.17504L15.8262 14.981C15.9095 15.0646 15.9661 15.1709 15.989 15.2866C16.0119 15.4024 16.0001 15.5223 15.9549 15.6313C15.9098 15.7402 15.8334 15.8334 15.7353 15.899C15.6373 15.9647 15.522 15.9998 15.4041 16H15.4031Z" fill="#4C638E"/>
<path d="M4.59727 16C4.47923 16 4.36383 15.965 4.26565 15.8994C4.16748 15.8339 4.09093 15.7407 4.04566 15.6317C4.0004 15.5227 3.98845 15.4027 4.01133 15.2869C4.0342 15.1711 4.09088 15.0646 4.1742 14.981L14.9802 4.17504C15.0922 4.06297 15.2443 4 15.4028 4C15.5613 4 15.7133 4.06297 15.8253 4.17504C15.9374 4.28712 16.0004 4.43913 16.0004 4.59764C16.0004 4.75614 15.9374 4.90815 15.8253 5.02023L5.01939 15.8262C4.96392 15.8815 4.89808 15.9253 4.82565 15.9551C4.75322 15.985 4.67561 16.0002 4.59727 16Z" fill="#4C638E"/>
</svg>
