<svg width="23" height="18" viewBox="0 0 23 18" fill="none" xmlns="http://www.w3.org/2000/svg">
<path d="M13.4725 1.08771C13.4726 0.944464 13.5012 0.801778 13.5569 0.669541C13.6127 0.537443 13.6943 0.417045 13.7972 0.316236L13.8781 0.244417C14.0733 0.0871013 14.319 -1.09784e-08 14.5731 0C14.8628 5.23989e-05 15.1408 0.113584 15.3466 0.315078L22.2159 7.11822C22.7185 7.61815 22.9999 8.29583 23 9.00058C22.9999 9.70486 22.7179 10.3808 22.2159 10.8806L15.349 17.6838C15.1421 17.8868 14.8611 18.0009 14.5696 18C14.278 17.999 13.998 17.8835 13.7925 17.6791C13.587 17.4745 13.4715 17.1971 13.4725 16.9088C13.4736 16.6206 13.5903 16.3439 13.7972 16.1408L13.7995 16.1396L19.9234 10.0871H1.09937C0.807937 10.0871 0.528415 9.97222 0.322309 9.76858C0.116343 9.56494 9.90127e-05 9.28851 0 9.00058C7.75464e-05 8.71254 0.116233 8.43509 0.322309 8.23142C0.52838 8.028 0.808106 7.91405 1.09937 7.91402H19.9234L13.7995 1.86035L13.7972 1.85919C13.6944 1.7583 13.6127 1.63807 13.5569 1.50589C13.5012 1.37357 13.4725 1.23105 13.4725 1.08771Z" fill="url(#paint0_linear_49_126)"/>
<defs>
<linearGradient id="paint0_linear_49_126" x1="24.6971" y1="10.6753" x2="-17.1545" y2="-7.47262" gradientUnits="userSpaceOnUse">
<stop stop-color="#E8AC52"/>
<stop offset="0.427669" stop-color="#755323"/>
<stop offset="0.805162" stop-color="#553A16"/>
</linearGradient>
</defs>
</svg>
